<?xml version="1.0" encoding="UTF-8" standalone="no"?>
<!-- Created with Inkscape (http://www.inkscape.org/) -->

<svg
   xmlns:dc="http://purl.org/dc/elements/1.1/"
   xmlns:cc="http://creativecommons.org/ns#"
   xmlns:rdf="http://www.w3.org/1999/02/22-rdf-syntax-ns#"
   xmlns:svg="http://www.w3.org/2000/svg"
   xmlns="http://www.w3.org/2000/svg"
   xmlns:sodipodi="http://sodipodi.sourceforge.net/DTD/sodipodi-0.dtd"
   xmlns:inkscape="http://www.inkscape.org/namespaces/inkscape"
   width="211"
   height="128"
   viewBox="0 0 211 128"
   version="1.1"
   id="svg8"
   inkscape:version="0.92.3 (2405546, 2018-03-11)"
   sodipodi:docname="yt-classic-icons.svg"
   inkscape:export-filename="E:\Temp\icon128.png"
   inkscape:export-xdpi="96"
   inkscape:export-ydpi="96">
  <defs
     id="defs2" />
  <sodipodi:namedview
     id="base"
     pagecolor="#ffffff"
     bordercolor="#666666"
     borderopacity="1.0"
     inkscape:pageopacity="0.0"
     inkscape:pageshadow="2"
     inkscape:zoom="1"
     inkscape:cx="208.61588"
     inkscape:cy="11.161059"
     inkscape:document-units="px"
     inkscape:current-layer="layer1"
     showgrid="false"
     units="px"
     inkscape:window-width="1920"
     inkscape:window-height="1027"
     inkscape:window-x="-8"
     inkscape:window-y="-8"
     inkscape:window-maximized="1"
     inkscape:snap-bbox="true"
     inkscape:bbox-nodes="true"
     showguides="false">
    <inkscape:grid
       type="xygrid"
       id="grid823" />
    <sodipodi:guide
       position="-135.7645,255.26555"
       orientation="-0.70710678,0.70710678"
       id="guide822"
       inkscape:locked="false" />
  </sodipodi:namedview>
  <metadata
     id="metadata5">
    <rdf:RDF>
      <cc:Work
         rdf:about="">
        <dc:format>image/svg+xml</dc:format>
        <dc:type
           rdf:resource="http://purl.org/dc/dcmitype/StillImage" />
        <dc:title></dc:title>
      </cc:Work>
    </rdf:RDF>
  </metadata>
  <g
     inkscape:label="Layer 1"
     inkscape:groupmode="layer"
     id="layer1"
     transform="translate(0,-963.24999)">
    <g
       id="icon128"
       inkscape:label="#g827">
      <rect
         ry="0"
         y="963.25"
         x="0"
         height="128"
         width="128"
         id="rect820"
         style="opacity:1;fill:#d3bc5f;fill-opacity:0;stroke:none;stroke-width:18;stroke-linecap:round;stroke-linejoin:round;stroke-miterlimit:4;stroke-dasharray:none;stroke-opacity:1;paint-order:markers stroke fill" />
      <path
         style="fill:#da2431;fill-opacity:1;stroke-width:1"
         inkscape:connector-curvature="0"
         id="XMLID_142_"
         d="m 125.23695,996.97558 c -1.46279,-5.4087 -5.7699,-9.68722 -11.29601,-11.14031 -9.99573,-2.58326 -49.97869,-2.58326 -49.97869,-2.58326 0,0 -39.251563,-0.16145 -49.247303,2.42181 -5.5260989,1.45309 -10.8084003,5.89306 -12.2711914,11.30176 -2.68178303,9.84872 -2.43798523,30.27252 -2.43798523,30.27252 0,0 -0.2437978,20.424 2.43798523,30.2726 1.4627911,5.4087 6.8263587,9.8487 12.2711914,11.3018 9.99574,2.6639 49.247303,2.4217 49.247303,2.4217 0,0 39.25156,0.1616 49.24731,-2.4217 5.52609,-1.4531 10.64585,-5.8931 12.10865,-11.3018 C 128,1047.7528 128,1027.2481 128,1027.2481 c 0,0 -0.0812,-20.4238 -2.76305,-30.27252 z" />
      <path
         inkscape:connector-curvature="0"
         id="path1404"
         d="m 34,1012.25 a 15,15 0 0 0 -15,15 15,15 0 0 0 15,15 15,15 0 0 0 15,-15 15,15 0 0 0 -15,-15 z m 60,0 a 15,15 0 0 0 -15,15 15,15 0 0 0 15,15 15,15 0 0 0 15,-15 15,15 0 0 0 -15,-15 z m -54.5,5 a 4.5,4.5 0 0 1 4.5,4.5 4.5,4.5 0 0 1 -4.5,4.5 4.5,4.5 0 0 1 -4.5,-4.5 4.5,4.5 0 0 1 4.5,-4.5 z m 60,0 a 4.5,4.5 0 0 1 4.5,4.5 4.5,4.5 0 0 1 -4.5,4.5 4.5,4.5 0 0 1 -4.5,-4.5 4.5,4.5 0 0 1 4.5,-4.5 z"
         style="opacity:1;fill:#ffffff;fill-opacity:1;stroke:none;stroke-width:18;stroke-linecap:round;stroke-linejoin:round;stroke-miterlimit:4;stroke-dasharray:none;stroke-opacity:1;paint-order:markers stroke fill" />
    </g>
    <g
       inkscape:label="#g827"
       id="icon19"
       transform="matrix(0.1484375,0,0,0.1484375,176,929.26758)"
       style="stroke-width:6.73684216">
      <rect
         style="opacity:1;fill:#d3bc5f;fill-opacity:0;stroke:none;stroke-width:121.26315308;stroke-linecap:round;stroke-linejoin:round;stroke-miterlimit:4;stroke-dasharray:none;stroke-opacity:1;paint-order:markers stroke fill"
         id="rect829"
         width="128"
         height="128"
         x="0"
         y="963.25"
         ry="0" />
      <path
         d="m 125.23695,997.12037 c -1.46279,-5.38283 -5.7699,-9.64088 -11.29601,-11.08702 -9.99573,-2.5709 -49.97869,-2.5709 -49.97869,-2.5709 0,0 -39.251563,-0.16068 -49.247303,2.41022 -5.5260989,1.44614 -10.8084003,5.86487 -12.2711914,11.2477 -2.68178303,9.80163 -2.43798523,30.12773 -2.43798523,30.12773 0,0 -0.2437978,20.3263 2.43798523,30.1278 1.4627911,5.3828 6.8263587,9.8016 12.2711914,11.2477 9.99574,2.6512 49.247303,2.4101 49.247303,2.4101 0,0 39.25156,0.1609 49.24731,-2.4101 5.52609,-1.4461 10.64585,-5.8649 12.10865,-11.2477 C 128,1047.6547 128,1027.2481 128,1027.2481 c 0,0 -0.0812,-20.3261 -2.76305,-30.12773 z"
         id="path831"
         inkscape:connector-curvature="0"
         style="fill:#da2431;fill-opacity:1;stroke-width:6.73684216" />
      <path
         style="opacity:1;fill:#ffffff;fill-opacity:1;stroke:none;stroke-width:121.26315308;stroke-linecap:round;stroke-linejoin:round;stroke-miterlimit:4;stroke-dasharray:none;stroke-opacity:1;paint-order:markers stroke fill"
         d="m 34,1012.25 a 15,15 0 0 0 -15,15 15,15 0 0 0 15,15 15,15 0 0 0 15,-15 15,15 0 0 0 -15,-15 z m 60,0 a 15,15 0 0 0 -15,15 15,15 0 0 0 15,15 15,15 0 0 0 15,-15 15,15 0 0 0 -15,-15 z m -54.5,5 a 4.5,4.5 0 0 1 4.5,4.5 4.5,4.5 0 0 1 -4.5,4.5 4.5,4.5 0 0 1 -4.5,-4.5 4.5,4.5 0 0 1 4.5,-4.5 z m 60,0 a 4.5,4.5 0 0 1 4.5,4.5 4.5,4.5 0 0 1 -4.5,4.5 4.5,4.5 0 0 1 -4.5,-4.5 4.5,4.5 0 0 1 4.5,-4.5 z"
         id="path833"
         inkscape:connector-curvature="0" />
    </g>
    <g
       style="stroke-width:2.66666675"
       transform="matrix(0.375,0,0,0.375,128,682.03125)"
       id="icon48"
       inkscape:label="#g827">
      <rect
         ry="0"
         y="963.25"
         x="0"
         height="128"
         width="128"
         id="rect837"
         style="opacity:1;fill:#d3bc5f;fill-opacity:0;stroke:none;stroke-width:48;stroke-linecap:round;stroke-linejoin:round;stroke-miterlimit:4;stroke-dasharray:none;stroke-opacity:1;paint-order:markers stroke fill" />
      <path
         style="fill:#da2431;fill-opacity:1;stroke-width:2.66666675"
         inkscape:connector-curvature="0"
         id="path839"
         d="m 125.23695,998.30895 c -1.46279,-5.4087 -5.7699,-9.68722 -11.29601,-11.14031 -9.99573,-2.58326 -49.97869,-2.58326 -49.97869,-2.58326 0,0 -39.251563,-0.16145 -49.247303,2.42181 -5.5260989,1.45309 -10.8084003,5.89306 -12.2711914,11.30176 -2.68178303,9.84875 -2.43798523,30.27255 -2.43798523,30.27255 0,0 -0.2437978,20.424 2.43798523,30.2726 1.4627911,5.4087 6.8263587,9.8487 12.2711914,11.3018 9.99574,2.6639 49.247303,2.4217 49.247303,2.4217 0,0 39.25156,0.1616 49.24731,-2.4217 5.52609,-1.4531 10.64585,-5.8931 12.10865,-11.3018 C 128,1049.0862 128,1028.5815 128,1028.5815 c 0,0 -0.0812,-20.4238 -2.76305,-30.27255 z" />
      <path
         inkscape:connector-curvature="0"
         id="path841"
         d="m 34,1012.25 a 15,15 0 0 0 -15,15 15,15 0 0 0 15,15 15,15 0 0 0 15,-15 15,15 0 0 0 -15,-15 z m 60,0 a 15,15 0 0 0 -15,15 15,15 0 0 0 15,15 15,15 0 0 0 15,-15 15,15 0 0 0 -15,-15 z m -54.5,5 a 4.5,4.5 0 0 1 4.5,4.5 4.5,4.5 0 0 1 -4.5,4.5 4.5,4.5 0 0 1 -4.5,-4.5 4.5,4.5 0 0 1 4.5,-4.5 z m 60,0 a 4.5,4.5 0 0 1 4.5,4.5 4.5,4.5 0 0 1 -4.5,4.5 4.5,4.5 0 0 1 -4.5,-4.5 4.5,4.5 0 0 1 4.5,-4.5 z"
         style="opacity:1;fill:#ffffff;fill-opacity:1;stroke:none;stroke-width:48;stroke-linecap:round;stroke-linejoin:round;stroke-miterlimit:4;stroke-dasharray:none;stroke-opacity:1;paint-order:markers stroke fill" />
    </g>
    <g
       style="stroke-width:8"
       transform="matrix(0.125,0,0,0.125,195,954.84375)"
       id="icon16"
       inkscape:label="#g827">
      <rect
         ry="0"
         y="963.25"
         x="0"
         height="128"
         width="128"
         id="rect845"
         style="opacity:1;fill:#d3bc5f;fill-opacity:0;stroke:none;stroke-width:144;stroke-linecap:round;stroke-linejoin:round;stroke-miterlimit:4;stroke-dasharray:none;stroke-opacity:1;paint-order:markers stroke fill" />
      <path
         style="fill:#da2431;fill-opacity:1;stroke-width:8"
         inkscape:connector-curvature="0"
         id="path847"
         d="m 125.23695,994.22328 c -1.46279,-5.9004 -5.7699,-10.56787 -11.29601,-12.15306 -9.99573,-2.8181 -49.97869,-2.8181 -49.97869,-2.8181 0,0 -39.251563,-0.17613 -49.247303,2.64198 -5.5260989,1.58518 -10.8084003,6.42878 -12.2711914,12.32918 -2.68178303,10.74412 -2.43798523,33.02462 -2.43798523,33.02462 0,0 -0.2437978,22.2807 2.43798523,33.0247 1.4627911,5.9004 6.8263587,10.7441 12.2711914,12.3293 9.99574,2.906 49.247303,2.6418 49.247303,2.6418 0,0 39.25156,0.1764 49.24731,-2.6418 5.52609,-1.5852 10.64585,-6.4289 12.10865,-12.3293 C 128,1049.6167 128,1027.2479 128,1027.2479 c 0,0 -0.0812,-22.2805 -2.76305,-33.02462 z" />
      <path
         inkscape:connector-curvature="0"
         id="path849"
         d="m 32,1011.2499 a 16.000001,16.000001 0 0 0 -16,16 16.000001,16.000001 0 0 0 16,16 16.000001,16.000001 0 0 0 16.000001,-16 16.000001,16.000001 0 0 0 -16.000001,-16 z m 64.000002,0 a 16.000001,16.000001 0 0 0 -16,16 16.000001,16.000001 0 0 0 16,16 16.000001,16.000001 0 0 0 15.999998,-16 16.000001,16.000001 0 0 0 -15.999998,-16 z m -58.133335,5.3334 a 4.8000002,4.8000002 0 0 1 4.8,4.8 4.8000002,4.8000002 0 0 1 -4.8,4.8 4.8000002,4.8000002 0 0 1 -4.8,-4.8 4.8000002,4.8000002 0 0 1 4.8,-4.8 z m 64.000003,0 a 4.8000002,4.8000002 0 0 1 4.8,4.8 4.8000002,4.8000002 0 0 1 -4.8,4.8 4.8000002,4.8000002 0 0 1 -4.8,-4.8 4.8000002,4.8000002 0 0 1 4.8,-4.8 z"
         style="opacity:1;fill:#ffffff;fill-opacity:1;stroke:none;stroke-width:144;stroke-linecap:round;stroke-linejoin:round;stroke-miterlimit:4;stroke-dasharray:none;stroke-opacity:1;paint-order:markers stroke fill" />
    </g>
  </g>
</svg>
